<svg xmlns="http://www.w3.org/2000/svg" viewBox="0 0 200 200">
  <defs>
    <linearGradient id="blueGrad1" x1="0%" y1="0%" x2="100%" y2="100%">
      <stop offset="0%" style="stop-color:#0066FF;stop-opacity:1" />
      <stop offset="100%" style="stop-color:#0047AB;stop-opacity:1" />
    </linearGradient>
  </defs>
  
  <!-- Fondo blanco -->
  <rect width="200" height="200" fill="white" rx="20"/>
  
  <!-- Onda superior (azul claro) -->
  <path d="M 40 60 Q 100 30, 160 60 Q 140 80, 120 100 Q 100 120, 80 100 Q 60 80, 40 60 Z" 
        fill="#0066FF" opacity="0.9"/>
  
  <!-- Onda central (azul medio) -->
  <path d="M 60 100 Q 100 70, 140 100 Q 120 120, 100 140 Q 80 120, 60 100 Z" 
        fill="#0052CC" opacity="0.95"/>
  
  <!-- Onda inferior (azul oscuro) -->
  <path d="M 40 140 Q 100 110, 160 140 Q 140 160, 120 180 Q 100 200, 80 180 Q 60 160, 40 140 Z" 
        fill="#0047AB"/>
  
  <!-- Círculo decorativo central -->
  <circle cx="100" cy="100" r="25" fill="#0066FF" opacity="0.3"/>
</svg>
